<svg width="55" height="65" viewBox="0 0 55 65" fill="none" xmlns="http://www.w3.org/2000/svg">
<path opacity="0.42" d="M6.83333 64.125C5.86528 64.125 5.05382 63.8016 4.39896 63.1547C3.7441 62.5078 3.41667 61.7062 3.41667 60.75V53.8312C2.39167 52.7062 1.56597 51.4547 0.939583 50.0766C0.313194 48.6984 0 47.1938 0 45.5625V13.5C0 8.83125 2.19236 5.41406 6.57708 3.24844C10.9618 1.08281 17.8806 0 27.3333 0C37.1278 0 44.132 1.04063 48.3458 3.12188C52.5597 5.20313 54.6667 8.6625 54.6667 13.5V45.5625C54.6667 47.1938 54.3535 48.6984 53.7271 50.0766C53.1007 51.4547 52.275 52.7062 51.25 53.8312V60.75C51.25 61.7062 50.9226 62.5078 50.2677 63.1547C49.6129 63.8016 48.8014 64.125 47.8333 64.125H44.4167C43.4486 64.125 42.6372 63.8016 41.9823 63.1547C41.3274 62.5078 41 61.7062 41 60.75V57.375H13.6667V60.75C13.6667 61.7062 13.3392 62.5078 12.6844 63.1547C12.0295 63.8016 11.2181 64.125 10.25 64.125H6.83333ZM6.83333 27H47.8333V16.875H6.83333V27ZM15.375 47.25C16.7986 47.25 18.0087 46.7578 19.0052 45.7734C20.0017 44.7891 20.5 43.5937 20.5 42.1875C20.5 40.7813 20.0017 39.5859 19.0052 38.6016C18.0087 37.6172 16.7986 37.125 15.375 37.125C13.9514 37.125 12.7413 37.6172 11.7448 38.6016C10.7483 39.5859 10.25 40.7813 10.25 42.1875C10.25 43.5937 10.7483 44.7891 11.7448 45.7734C12.7413 46.7578 13.9514 47.25 15.375 47.25ZM39.2917 47.25C40.7153 47.25 41.9254 46.7578 42.9219 45.7734C43.9184 44.7891 44.4167 43.5937 44.4167 42.1875C44.4167 40.7813 43.9184 39.5859 42.9219 38.6016C41.9254 37.6172 40.7153 37.125 39.2917 37.125C37.8681 37.125 36.658 37.6172 35.6615 38.6016C34.6649 39.5859 34.1667 40.7813 34.1667 42.1875C34.1667 43.5937 34.6649 44.7891 35.6615 45.7734C36.658 46.7578 37.8681 47.25 39.2917 47.25ZM8.37083 10.125H46.6375C45.7833 9.16875 43.9469 8.36719 41.1281 7.72031C38.3094 7.07344 33.7681 6.75 27.5042 6.75C21.4111 6.75 16.9552 7.10156 14.1365 7.80469C11.3177 8.50781 9.39583 9.28125 8.37083 10.125ZM13.6667 50.625H41C42.8792 50.625 44.4879 49.9641 45.826 48.6422C47.1642 47.3203 47.8333 45.7313 47.8333 43.875V33.75H6.83333V43.875C6.83333 45.7313 7.50243 47.3203 8.84063 48.6422C10.1788 49.9641 11.7875 50.625 13.6667 50.625Z" fill="#274253"/>
</svg>
