<svg width="130" height="130" viewBox="0 0 130 130" fill="none" xmlns="http://www.w3.org/2000/svg">
<circle cx="65" cy="65" r="65" fill="#D9D9D9"/>
<path d="M59.427 18.0998C57.4086 18.1503 55.1251 18.4912 52.625 19.3008C47.5605 20.941 41.3767 25.3709 36.7502 32.0947C32.1237 38.8186 29.1954 47.9458 31.377 58.5205C32.6827 64.851 34.5522 69.69 35.1561 74.1418C35.76 78.5936 35.3152 82.6906 31.8604 88.4461C31.79 88.5607 31.7303 88.6815 31.6821 88.807C28.6689 90.4562 26.0381 91.9287 26.0381 91.9287C25.6033 92.1739 25.2647 92.5597 25.0781 93.0227C24.8915 93.4858 24.8679 93.9985 25.0112 94.4767L28.9815 107.707C29.1186 108.163 29.3998 108.562 29.7829 108.844C30.166 109.126 30.6304 109.277 31.1063 109.273L98.7369 108.71C99.2131 108.706 99.6752 108.548 100.054 108.259C100.432 107.97 100.707 107.566 100.836 107.107L104.447 94.35C104.594 93.8341 104.546 93.2827 104.314 92.7992C104.083 92.3158 103.682 91.9337 103.188 91.7246C103.188 91.7246 101.621 91.0488 99.4545 90.051C96.3628 84.6178 95.8923 79.7878 96.4875 74.6488C97.1046 69.321 98.9639 63.7127 100.262 57.4205C102.434 46.8917 99.8108 38.0353 95.4498 31.564C91.0889 25.0928 85.1256 20.9238 80.1143 19.3008C78.796 18.8738 77.5328 18.6497 76.3352 18.5832C73.3662 18.4182 70.8142 19.2317 68.8393 20.3428C68.1502 19.9318 66.6871 19.1539 64.6348 18.6455C63.198 18.2896 61.4453 18.0492 59.427 18.0998ZM59.543 22.489C61.1444 22.4492 62.4906 22.6473 63.5778 22.9166C64.1609 23.061 64.6427 23.2179 65.0559 23.3721C63.9904 24.5315 63.4381 25.4517 63.4381 25.4517C63.2894 25.6996 63.1909 25.9743 63.1484 26.2602C63.1058 26.5461 63.12 26.8376 63.1901 27.1181C63.2603 27.3985 63.3849 27.6623 63.557 27.8946C63.7291 28.1268 63.9453 28.3229 64.1931 28.4716C64.441 28.6203 64.7158 28.7187 65.0017 28.7612C65.2876 28.8037 65.5791 28.7895 65.8595 28.7194C66.1399 28.6492 66.4038 28.5245 66.636 28.3524C66.8682 28.1803 67.0643 27.9641 67.2129 27.7162C67.2129 27.7162 68.2155 26.0614 70.1928 24.6719C72.1701 23.2823 74.8238 22.2138 78.7586 23.4881C82.5847 24.7272 88.0101 28.3953 91.8018 34.0219C95.5935 39.6484 97.8879 47.1498 95.9526 56.531C94.721 62.4995 92.8074 68.1885 92.1176 74.1439C91.6372 78.2917 91.8146 82.5989 93.2885 87.0367C91.8282 86.2783 90.367 85.4915 89.0496 84.7056C88.2637 81.4309 87.0065 74.2143 88.6973 66.1195C88.7335 65.9578 88.7328 65.7901 88.6951 65.6287C88.6574 65.4674 88.5837 65.3166 88.4796 65.1877C88.3755 65.0588 88.2436 64.9551 88.0938 64.8843C87.944 64.8135 87.7802 64.7775 87.6145 64.7789C87.361 64.7812 87.116 64.8709 86.921 65.033C86.7261 65.1951 86.5931 65.4195 86.5446 65.6683C85.0826 72.6677 85.715 79.0102 86.45 82.9976C85.0975 81.9852 84.1716 81.0418 84.0996 80.9008C82.4158 77.5982 81.4952 73.3304 81.2895 72.3156C82.3789 70.6884 83.1624 69.1261 83.5389 67.7137C84.3347 64.7285 84.8702 63.4182 85.1588 62.6541C86.5854 62.4934 88.5227 62.0495 90.4182 60.2242C92.3364 58.3771 92.8219 55.8202 93.1338 53.3986C93.2898 52.1878 93.3354 51.0389 93.2112 49.9826C93.1491 49.4544 93.0572 48.9476 92.8158 48.3906C92.5745 47.8336 92.1102 47.0572 91.0799 46.7105C90.0926 46.3778 89.1629 46.3251 88.3235 46.4334C85.8051 46.7583 84.1018 48.5303 84.1018 48.5303C83.6676 48.8954 83.3913 49.4142 83.3305 49.9783C71.8171 48.6076 66.5953 44.4066 64.1471 40.5553C61.5194 36.4216 62.0459 32.6404 62.0459 32.6404C62.0688 32.4857 62.0585 32.3279 62.0156 32.1776C61.9728 32.0272 61.8983 31.8877 61.7973 31.7683C61.6962 31.649 61.5709 31.5526 61.4297 31.4855C61.2884 31.4184 61.1345 31.3822 60.9782 31.3793C60.761 31.3756 60.5476 31.4362 60.3648 31.5536C60.1821 31.671 60.0381 31.8398 59.9512 32.0388C56.0843 35.573 48.9061 36.4045 48.9061 36.4045C48.7602 36.4158 48.618 36.4562 48.4879 36.5232C48.3578 36.5901 48.2424 36.6824 48.1484 36.7945C48.0544 36.9067 47.9837 37.0365 47.9405 37.1763C47.8972 37.3161 47.8823 37.4631 47.8966 37.6087C47.9109 37.7543 47.9541 37.8957 48.0237 38.0244C48.0933 38.1531 48.1878 38.2667 48.3018 38.3584C48.4159 38.4501 48.547 38.5182 48.6877 38.5586C48.8283 38.599 48.9756 38.611 49.1209 38.5937C49.1209 38.5937 55.2599 37.9315 59.9254 34.6664C59.9469 34.9992 59.9158 34.9886 59.9705 35.3861C56.7796 41.0248 47.9865 43.6297 47.9865 43.6297C47.8461 43.6671 47.7145 43.732 47.5994 43.8206C47.4842 43.9092 47.3877 44.0198 47.3155 44.1459C47.2432 44.272 47.1967 44.4111 47.1786 44.5553C47.1604 44.6995 47.1711 44.8458 47.2098 44.9859C47.2485 45.1259 47.3146 45.2569 47.4043 45.3713C47.4939 45.4857 47.6054 45.5811 47.7321 45.6522C47.8589 45.7233 47.9985 45.7685 48.1428 45.7853C48.2871 45.8021 48.4334 45.7902 48.5731 45.7502C48.5731 45.7502 56.2993 43.7141 60.6323 38.2543C60.6661 38.3553 60.7482 38.47 60.7848 38.5722C56.8078 44.5853 51.9021 47.351 49.1553 48.526C48.9395 48.0942 48.5877 47.7455 48.1541 47.5334C48.1541 47.5334 46.4578 46.5065 44.2117 46.6504C43.0887 46.7223 41.6324 47.2696 40.7528 48.5238C39.8731 49.7781 39.6343 51.3812 39.8117 53.3256C39.8117 53.3263 39.8117 53.327 39.8117 53.3277C40.1074 56.5612 41.252 59.0034 42.9699 60.5271C43.9885 61.4305 45.1877 61.8584 46.4053 62.0439C46.7367 64.6565 47.2515 67.2841 48.2078 69.8879C48.5587 70.8421 49.0511 71.884 49.6623 72.958C49.6568 73.0324 49.2539 78.2936 45.6383 81.3197C45.7567 79.4668 45.7374 76.3724 44.8455 72.597C44.7896 72.3438 44.6459 72.1184 44.4399 71.9608C44.2339 71.8031 43.9789 71.7234 43.7198 71.7355C43.557 71.7431 43.3979 71.7867 43.2541 71.8632C43.1102 71.9397 42.9851 72.0472 42.8879 72.178C42.7907 72.3087 42.7237 72.4594 42.6918 72.6192C42.6599 72.779 42.6639 72.9439 42.7035 73.1019C44.0688 78.8814 43.2762 82.7512 43.275 82.757C41.7171 83.5086 39.9972 84.377 38.2305 85.2986C39.7745 81.0741 40.0133 77.2224 39.5153 73.551C38.8124 68.3695 36.9099 63.5611 35.6867 57.631C33.7609 48.2957 36.2985 40.513 40.3746 34.589C44.4508 28.6651 50.2078 24.71 53.9807 23.4881C56.0852 22.8066 57.9416 22.5289 59.543 22.489ZM73.6647 32.9777C73.5019 32.9742 73.3403 33.0069 73.1917 33.0735C73.0431 33.14 72.9111 33.2387 72.8052 33.3624C72.6994 33.4862 72.6223 33.6319 72.5796 33.789C72.5369 33.9461 72.5296 34.1108 72.5582 34.2711C72.5582 34.2711 72.8767 36.0755 74.3737 38.0867C75.8706 40.0979 78.5789 42.4105 83.2403 43.7672C83.3802 43.8118 83.5276 43.828 83.6739 43.8148C83.8201 43.8016 83.9623 43.7592 84.0919 43.6902C84.2215 43.6211 84.336 43.5268 84.4286 43.4129C84.5212 43.2989 84.5901 43.1675 84.6311 43.0265C84.6721 42.8855 84.6845 42.7377 84.6675 42.5918C84.6505 42.4459 84.6045 42.3049 84.5321 42.1771C84.4597 42.0493 84.3625 41.9373 84.2462 41.8477C84.1299 41.7581 83.9967 41.6926 83.8547 41.6553C79.6116 40.4203 77.3683 38.4247 76.1397 36.774C74.9111 35.1233 74.7282 33.9123 74.7282 33.9123C74.6892 33.6562 74.5613 33.4221 74.3667 33.2512C74.1722 33.0802 73.9236 32.9834 73.6647 32.9777ZM66.4266 33.9961C66.2452 33.9925 66.0658 34.0338 65.9043 34.1163C65.7427 34.1989 65.6041 34.3201 65.5008 34.4692C65.3974 34.6182 65.3325 34.7906 65.3119 34.9708C65.2912 35.151 65.3155 35.3335 65.3825 35.5021C65.3825 35.5021 69.276 45.4514 81.6182 47.4603C81.7632 47.4896 81.9126 47.4894 82.0575 47.4596C82.2024 47.4298 82.3398 47.3711 82.4615 47.287C82.5832 47.2029 82.6866 47.0951 82.7657 46.97C82.8448 46.845 82.8978 46.7054 82.9217 46.5594C82.9455 46.4134 82.9397 46.2641 82.9045 46.1204C82.8693 45.9767 82.8055 45.8416 82.7169 45.7231C82.6284 45.6047 82.5168 45.5053 82.3889 45.4309C82.261 45.3566 82.1195 45.3088 81.9727 45.2904C70.6759 43.4516 67.4364 34.7179 67.4364 34.7179C67.3603 34.51 67.2232 34.3298 67.043 34.201C66.8628 34.0722 66.648 34.0008 66.4266 33.9961ZM61.8139 40.7336C61.996 41.0736 62.0726 41.3914 62.2908 41.7347C65.2643 46.4123 71.723 51.1816 84.9826 52.3523C85.1953 52.4054 85.4147 52.4264 85.6336 52.4146C85.6881 52.4189 85.7379 52.4255 85.7926 52.4297C85.9692 52.4463 86.1472 52.4201 86.3114 52.3531C86.4756 52.2862 86.6212 52.1805 86.7358 52.0451C86.8169 51.9916 86.8944 51.9327 86.9678 51.8689C86.9678 51.8689 87.9763 51.3566 88.8241 51.0976C88.8397 51.6074 88.8598 52.143 88.7703 52.8379C88.5295 54.708 87.5844 56.8421 87.3653 57.0531C86.0505 58.3191 83.5582 58.4195 83.5582 58.4195C83.1088 58.4089 82.6669 58.5363 82.292 58.7844C81.9171 59.0325 81.6272 59.3895 81.4614 59.8074C81.4614 59.8074 80.3403 62.6286 79.2871 66.5793C79.0221 67.5735 76.8285 71.3437 73.9912 74.2965C71.154 77.2492 67.6063 79.529 65.217 79.616C62.5036 79.7145 59.6665 78.1014 57.2721 75.7209C54.8786 73.3412 53.0286 70.2444 52.3393 68.3711C51.3058 65.5573 50.7522 62.6652 50.5153 59.7322C50.4893 59.4119 50.3935 59.1011 50.2345 58.8218C50.0756 58.5425 49.8574 58.3014 49.5952 58.1154C49.3331 57.9295 49.0334 57.8032 48.7173 57.7455C48.4011 57.6878 48.0762 57.7001 47.7653 57.7814C47.2415 57.919 46.5848 57.8523 45.8897 57.2357C45.1945 56.6191 44.4138 55.3476 44.1924 52.926C44.0701 51.5862 44.3257 51.0931 44.3557 51.0504C44.3857 51.0076 44.2535 51.0571 44.4932 51.0418C44.9726 51.0111 46.1539 51.4521 46.1539 51.4521C46.5833 51.6809 47.0764 51.761 47.5561 51.6797C48.0358 51.5985 48.475 51.3605 48.8051 51.0031C51.3061 50.0307 57.0977 47.2275 61.8139 40.7336ZM65.0086 52.9367C64.8549 52.9414 64.7038 52.9783 64.5652 53.045C64.4266 53.1117 64.3035 53.2067 64.2039 53.3239C64.1043 53.4412 64.0303 53.578 63.9869 53.7255C63.9434 53.8731 63.9314 54.0281 63.9516 54.1806C64.3178 57.2946 63.7178 58.9303 60.8793 62.3512C60.7823 62.4681 60.7106 62.6038 60.6687 62.7499C60.6268 62.8959 60.6156 63.049 60.6358 63.1996C60.656 63.3501 60.7071 63.4949 60.786 63.6247C60.8649 63.7545 60.9698 63.8666 61.0942 63.9539C62.5701 64.9869 64.2154 65.8188 66.1108 66.1474C66.2537 66.1735 66.4004 66.171 66.5423 66.1401C66.6843 66.1092 66.8187 66.0505 66.9378 65.9673C67.0569 65.8842 67.1584 65.7783 67.2364 65.6557C67.3144 65.5331 67.3673 65.3963 67.3922 65.2532C67.417 65.1101 67.4132 64.9634 67.3811 64.8217C67.3489 64.6801 67.289 64.5462 67.2048 64.4278C67.1207 64.3094 67.0139 64.2088 66.8906 64.1319C66.7674 64.055 66.6301 64.0032 66.4867 63.9797C65.3274 63.7787 64.2749 63.2835 63.2469 62.6691C65.5245 59.6249 66.5096 57.0973 66.1366 53.925C66.1084 53.6481 65.9764 53.3923 65.7671 53.2089C65.5578 53.0255 65.2868 52.9282 65.0086 52.9367ZM77.8112 76.6469C78.3436 78.5292 79.1092 80.8011 80.1787 82.8988C80.619 83.762 81.216 84.4678 81.9233 85.1117L79.7791 87.5609C79.6827 87.6695 79.6087 87.7961 79.5614 87.9333C79.5141 88.0707 79.4944 88.216 79.5035 88.3609C79.5127 88.5058 79.5504 88.6475 79.6146 88.7778C79.6788 88.9081 79.7681 89.0243 79.8774 89.1199C79.9868 89.2155 80.1139 89.2885 80.2516 89.3347C80.3893 89.3808 80.5348 89.3993 80.6796 89.389C80.8245 89.3787 80.9658 89.3398 81.0956 89.2746C81.2253 89.2093 81.3409 89.1191 81.4356 89.009L83.6592 86.4652C84.077 86.7548 84.5098 87.0435 84.9676 87.3439L78.1012 95.9549C78.0111 96.0679 77.9441 96.1975 77.904 96.3364C77.864 96.4753 77.8517 96.6207 77.8678 96.7643C77.884 96.908 77.9283 97.047 77.9982 97.1736C78.0681 97.3001 78.1622 97.4116 78.2752 97.5017C78.3882 97.5919 78.5179 97.6589 78.6568 97.6989C78.7956 97.739 78.9411 97.7513 79.0847 97.7351C79.2283 97.7189 79.3674 97.6746 79.4939 97.6047C79.6204 97.5349 79.732 97.4407 79.8221 97.3277L86.8496 88.5148C87.3306 88.8017 87.819 89.0879 88.3192 89.3699L87.1912 92.3025C87.1374 92.4378 87.1109 92.5824 87.1134 92.728C87.1158 92.8736 87.1472 93.0173 87.2056 93.1507C87.264 93.2841 87.3483 93.4045 87.4536 93.5051C87.5589 93.6056 87.6831 93.6843 87.8191 93.7365C87.955 93.7887 88.0999 93.8134 88.2455 93.8091C88.391 93.8048 88.5343 93.7717 88.667 93.7117C88.7996 93.6516 88.919 93.5659 89.0183 93.4593C89.1175 93.3528 89.1946 93.2276 89.2451 93.091L90.2742 90.4162C90.8641 90.73 91.4483 91.0574 92.036 91.3572C92.4509 91.5689 92.7818 91.7275 93.1639 91.918L92.2401 93.9117C92.172 94.0435 92.1313 94.1877 92.1204 94.3357C92.1095 94.4836 92.1286 94.6322 92.1767 94.7726C92.2247 94.913 92.3006 95.0422 92.3998 95.1524C92.4991 95.2627 92.6196 95.3518 92.7541 95.4142C92.8887 95.4767 93.0345 95.5114 93.1827 95.516C93.331 95.5207 93.4787 95.4954 93.6169 95.4415C93.7552 95.3877 93.8811 95.3064 93.9871 95.2026C94.0931 95.0989 94.177 94.9747 94.2338 94.8377L95.1405 92.8869C95.6668 93.138 96.1642 93.3738 96.61 93.5787C96.8558 93.7574 97.136 93.8832 97.4328 93.9482C98.3434 94.3559 99.1941 94.7285 99.7037 94.9494L97.0526 104.323L58.9522 104.641L59.2229 104.037C59.3006 103.87 59.3351 103.686 59.3232 103.502C59.3113 103.318 59.2534 103.14 59.1548 102.985C59.0562 102.829 58.9201 102.701 58.7589 102.611C58.5978 102.522 58.4167 102.474 58.2324 102.473C58.0169 102.472 57.8056 102.534 57.6249 102.651C57.4443 102.769 57.3021 102.937 57.2162 103.135L56.5287 104.66L53.6262 104.686L54.9496 101.713C55.027 101.545 55.0611 101.361 55.0488 101.177C55.0365 100.993 54.9781 100.815 54.8791 100.66C54.78 100.504 54.6435 100.376 54.482 100.287C54.3205 100.198 54.1393 100.151 53.9549 100.151C53.7392 100.15 53.5281 100.213 53.3478 100.331C53.1675 100.45 53.026 100.619 52.9408 100.817L51.2092 104.705L47.8834 104.733L48.5709 103.161C48.6473 102.993 48.6802 102.808 48.6666 102.624C48.6529 102.44 48.5932 102.262 48.4928 102.107C48.3924 101.952 48.2547 101.825 48.0923 101.737C47.9298 101.65 47.7479 101.604 47.5633 101.605C47.3474 101.606 47.1365 101.671 46.9569 101.791C46.7773 101.911 46.6371 102.081 46.5535 102.28L45.475 104.753L42.8539 104.776L44.2934 101.049C44.3624 100.878 44.3872 100.692 44.3657 100.509C44.3442 100.326 44.277 100.151 44.1702 100.001C44.0635 99.8502 43.9206 99.729 43.7548 99.6483C43.589 99.5675 43.4055 99.5298 43.2213 99.5385C43.0056 99.5487 42.7977 99.6222 42.6235 99.7498C42.4493 99.8774 42.3165 100.053 42.2416 100.256L40.4885 104.796L37.6332 104.819L39.1973 101.943C39.2922 101.774 39.3409 101.583 39.3385 101.389C39.336 101.196 39.2825 101.006 39.1833 100.84C39.0841 100.673 38.9428 100.536 38.7736 100.442C38.6044 100.348 38.4134 100.3 38.2198 100.303C38.0226 100.307 37.83 100.363 37.6622 100.467C37.4944 100.571 37.3575 100.717 37.2658 100.892L35.1174 104.841L32.7219 104.86L32.2858 103.41L34.6448 100.615C34.7843 100.454 34.8743 100.257 34.904 100.046C34.9337 99.8358 34.9017 99.6211 34.8119 99.4284C34.7221 99.2356 34.5784 99.073 34.3981 98.9603C34.2178 98.8475 34.0087 98.7894 33.7961 98.793C33.6362 98.7956 33.4787 98.8331 33.3347 98.9029C33.1908 98.9726 33.0637 99.073 32.9625 99.1969L31.5317 100.894L29.7442 94.9408C31.4062 94.0079 39.8001 89.2727 45.7135 86.4609C46.0526 86.2997 46.3595 86.1133 46.6717 85.9324L51.4842 89.7931C51.5961 89.8892 51.7262 89.9617 51.8667 90.0065C52.0072 90.0512 52.1553 90.0673 52.3022 90.0536C52.449 90.04 52.5916 89.997 52.7215 89.9272C52.8514 89.8574 52.9659 89.7621 53.0582 89.6472C53.1506 89.5322 53.2189 89.3998 53.2591 89.2579C53.2992 89.1161 53.3105 88.9675 53.2921 88.8212C53.2737 88.6749 53.2261 88.5338 53.1521 88.4062C53.0781 88.2786 52.9793 88.1673 52.8614 88.0787L48.5559 84.624C49.0406 84.2165 49.4761 83.7839 49.8793 83.3371L52.3651 86.3428C52.4552 86.4596 52.5679 86.557 52.6965 86.6294C52.8251 86.7017 52.967 86.7475 53.1136 86.7639C53.2602 86.7803 53.4087 86.767 53.5501 86.7249C53.6915 86.6827 53.823 86.6126 53.9367 86.5186C54.0505 86.4246 54.1441 86.3087 54.2122 86.1778C54.2802 86.0468 54.3212 85.9036 54.3327 85.7565C54.3442 85.6094 54.326 85.4614 54.2792 85.3215C54.2324 85.1816 54.1579 85.0525 54.0602 84.942L51.2608 81.556C52.1049 80.262 52.6921 78.9347 53.1041 77.7211C53.4458 78.1015 53.8006 78.4756 54.1698 78.8426C57.0724 81.7285 60.9086 84.176 65.376 84.0138C65.3767 84.0138 65.3774 84.0138 65.3782 84.0138C69.9354 83.8479 73.9355 80.7055 77.1645 77.3451C77.3875 77.113 77.5964 76.8794 77.8112 76.6469ZM72.5776 92.0017C71.9715 91.972 71.4547 92.4398 71.4239 93.0459C71.3942 93.652 71.8597 94.1688 72.4658 94.1996C73.0719 94.2293 73.5909 93.7616 73.6217 93.1554C73.6525 92.5493 73.1848 92.0325 72.5776 92.0017ZM64.4715 93.2758C63.8654 93.2461 63.3486 93.7138 63.3178 94.3199C63.2881 94.926 63.7558 95.4428 64.3619 95.4736C64.968 95.5033 65.4849 95.0356 65.5157 94.4295C65.5454 93.8223 65.0776 93.3055 64.4715 93.2758ZM71.1102 98.4105C70.5041 98.3808 69.9873 98.8486 69.9565 99.4547C69.9268 100.061 70.3945 100.578 71.0006 100.608C71.6067 100.638 72.1235 100.17 72.1543 99.5642C72.1851 98.957 71.7174 98.4402 71.1102 98.4105Z" fill="#274253"/>
<path d="M34.2 27.8C35.0219 28.5371 35.8981 29.2453 36.7891 29.9225C44.8548 35.8834 54.4384 40.4581 65.1417 40.7476C65.2778 40.7492 65.4139 40.7499 65.55 40.7497C75.954 40.6102 85.6162 36.9623 94.1108 31.8541C95.063 31.2668 96.0084 30.6481 96.9 30C95.8559 30.3516 94.7864 30.6784 93.7253 30.9859C84.2967 33.6082 74.779 35.6738 65.55 35.7503C65.4333 35.7501 65.3163 35.7493 65.1991 35.748C55.9793 35.5261 46.491 32.6434 37.2571 29.0958C36.2319 28.6873 35.204 28.2578 34.2 27.8Z" fill="#DB930C"/>
<g filter="url(#filter0_f_53_5702)">
<circle cx="63.35" cy="38.25" r="2.75" fill="white"/>
</g>
<defs>
<filter id="filter0_f_53_5702" x="60.1" y="35" width="6.5" height="6.5" filterUnits="userSpaceOnUse" color-interpolation-filters="sRGB">
<feFlood flood-opacity="0" result="BackgroundImageFix"/>
<feBlend mode="normal" in="SourceGraphic" in2="BackgroundImageFix" result="shape"/>
<feGaussianBlur stdDeviation="0.25" result="effect1_foregroundBlur_53_5702"/>
</filter>
</defs>
</svg>
