<svg width="28" height="28" viewBox="0 0 28 28" fill="none" xmlns="http://www.w3.org/2000/svg">
<path d="M26 12.9375C26.0047 14.7524 25.5807 16.5426 24.7625 18.1625C23.7923 20.1037 22.3009 21.7364 20.4552 22.8778C18.6096 24.0192 16.4826 24.6242 14.3125 24.625C12.4977 24.6298 10.7074 24.2058 9.0875 23.3875L1.25 26L3.8625 18.1625C3.04428 16.5426 2.62027 14.7524 2.625 12.9375C2.62584 10.7675 3.23084 8.64046 4.37224 6.79479C5.51364 4.94913 7.14635 3.45769 9.0875 2.48754C10.7074 1.66932 12.4977 1.24531 14.3125 1.25004H15C17.866 1.40815 20.5729 2.61784 22.6026 4.64747C24.6322 6.6771 25.8419 9.38406 26 12.25V12.9375Z" stroke="#274253" stroke-width="2.5" stroke-linecap="round" stroke-linejoin="round"/>
<path d="M26 12.9375C26.0047 14.7524 25.5807 16.5426 24.7625 18.1625C23.7923 20.1037 22.3009 21.7364 20.4552 22.8778C18.6096 24.0192 16.4826 24.6242 14.3125 24.625C12.4977 24.6298 10.7074 24.2058 9.0875 23.3875L1.25 26L3.8625 18.1625C3.04428 16.5426 2.62027 14.7524 2.625 12.9375C2.62584 10.7675 3.23084 8.64046 4.37224 6.79479C5.51364 4.94913 7.14635 3.45769 9.0875 2.48754C10.7074 1.66932 12.4977 1.24531 14.3125 1.25004H15C17.866 1.40815 20.5729 2.61784 22.6026 4.64747C24.6322 6.6771 25.8419 9.38406 26 12.25V12.9375Z" stroke="black" stroke-opacity="0.2" stroke-width="2.5" stroke-linecap="round" stroke-linejoin="round"/>
</svg>
