<svg width="26" height="28" viewBox="0 0 26 28" fill="none" xmlns="http://www.w3.org/2000/svg">
<path d="M14.9125 25.25C14.6927 25.6288 14.3773 25.9433 13.9978 26.1619C13.6183 26.3805 13.188 26.4956 12.75 26.4956C12.312 26.4956 11.8817 26.3805 11.5022 26.1619C11.1227 25.9433 10.8073 25.6288 10.5875 25.25M20.25 9C20.25 7.01088 19.4598 5.10322 18.0533 3.6967C16.6468 2.29018 14.7391 1.5 12.75 1.5C10.7609 1.5 8.85322 2.29018 7.4467 3.6967C6.04018 5.10322 5.25 7.01088 5.25 9C5.25 17.75 1.5 20.25 1.5 20.25H24C24 20.25 20.25 17.75 20.25 9Z" stroke="white" stroke-width="3" stroke-linecap="round" stroke-linejoin="round"/>
</svg>
