<svg width="48" height="48" viewBox="0 0 48 48" fill="none" xmlns="http://www.w3.org/2000/svg">
<path d="M42.8801 22.1L24.5001 40.48C22.2484 42.7316 19.1945 43.9966 16.0101 43.9966C12.8257 43.9966 9.77178 42.7316 7.52009 40.48C5.2684 38.2283 4.00342 35.1743 4.00342 31.99C4.00342 28.8056 5.2684 25.7516 7.52009 23.5L25.9001 5.11996C27.4012 3.61884 29.4372 2.77551 31.5601 2.77551C33.683 2.77551 35.719 3.61884 37.2201 5.11996C38.7212 6.62109 39.5645 8.65705 39.5645 10.78C39.5645 12.9029 38.7212 14.9388 37.2201 16.44L18.8201 34.82C18.0695 35.5705 17.0515 35.9922 15.9901 35.9922C14.9286 35.9922 13.9107 35.5705 13.1601 34.82C12.4095 34.0694 11.9879 33.0514 11.9879 31.99C11.9879 30.9285 12.4095 29.9105 13.1601 29.16L30.1401 12.2" stroke="#274253" stroke-width="4" stroke-linecap="round" stroke-linejoin="round"/>
</svg>
