<svg width="33" height="33" viewBox="0 0 33 33" fill="none" xmlns="http://www.w3.org/2000/svg">
<path d="M13.2908 2.75L12.6167 6.21973C11.4835 6.6471 10.4428 7.24615 9.53101 7.99487L6.19824 6.84546L2.98633 12.4045L5.65576 14.7249C5.55314 15.3549 5.5 15.9388 5.5 16.5C5.5 17.0621 5.55473 17.6449 5.65576 18.2751V18.2778L2.98633 20.5981L6.19824 26.1545L9.52832 25.0078C10.4402 25.7569 11.4832 26.3527 12.6167 26.7803L13.2908 30.25H19.7092L20.3833 26.7803C21.5173 26.3526 22.5567 25.7545 23.469 25.0051L26.8018 26.1545L30.011 20.5981L27.3442 18.2751C27.4469 17.6451 27.5 17.0612 27.5 16.5C27.5 15.9396 27.4466 15.3565 27.3442 14.7275V14.7249L30.0137 12.4019L26.8018 6.84546L23.4717 7.99219C22.5598 7.24306 21.5168 6.64734 20.3833 6.21973L19.7092 2.75H13.2908ZM15.5574 5.5H17.4426L17.9771 8.25L19.4111 8.79248C20.2755 9.11827 21.0522 9.56554 21.7261 10.1191L22.9131 11.0913L25.5557 10.1836L26.4983 11.8137L24.3875 13.6506L24.6292 15.1626V15.1653C24.7132 15.6808 24.75 16.1133 24.75 16.5C24.75 16.8867 24.7132 17.3191 24.6292 17.8347L24.3848 19.3467L26.4956 21.1836L25.553 22.8164L22.9131 21.906L21.7234 22.8809C21.0495 23.4345 20.2755 23.8817 19.4111 24.2075H19.4084L17.9744 24.75L17.4399 27.5H15.5574L15.0229 24.75L13.5889 24.2075C12.7245 23.8817 11.9478 23.4345 11.2739 22.8809L10.0869 21.9087L7.44434 22.8164L6.50171 21.1863L8.61523 19.3467L8.37085 17.8401V17.8374C8.28798 17.3196 8.25 16.8859 8.25 16.5C8.25 16.1133 8.28677 15.6809 8.37085 15.1653L8.61523 13.6533L6.50171 11.8164L7.44434 10.1836L10.0869 11.094L11.2739 10.1191C11.9478 9.56554 12.7245 9.11827 13.5889 8.79248L15.0229 8.25L15.5574 5.5ZM16.5 11C13.4798 11 11 13.4798 11 16.5C11 19.5202 13.4798 22 16.5 22C19.5202 22 22 19.5202 22 16.5C22 13.4798 19.5202 11 16.5 11ZM16.5 13.75C18.0283 13.75 19.25 14.9717 19.25 16.5C19.25 18.0283 18.0283 19.25 16.5 19.25C14.9717 19.25 13.75 18.0283 13.75 16.5C13.75 14.9717 14.9717 13.75 16.5 13.75Z" fill="#274253"/>
</svg>
